<?xml version="1.0" encoding="UTF-8"?>
<svg id="Calque_1" data-name="Calque 1" xmlns="http://www.w3.org/2000/svg" viewBox="0 0 241.56 491.12">
  <defs>
    <style>
      .cls-1 {
        stroke-width: 14px;
      }

      .cls-1, .cls-2 {
        fill: none;
        stroke: #2563eb;
        stroke-miterlimit: 10;
      }

      .cls-2 {
        stroke-width: 6px;
      }

      .cls-3, .cls-4, .cls-5, .cls-6 {
        isolation: isolate;
      }

      .cls-7, .cls-4, .cls-5, .cls-6 {
        fill: #2563eb;
      }

      .cls-4 {
        font-size: 131.1px;
      }

      .cls-4, .cls-5, .cls-6 {
        font-family: RumbleBrave, 'Rumble Brave';
      }

      .cls-5 {
        font-size: 128.3px;
      }

      .cls-6 {
        font-size: 126.6px;
      }
    </style>
  </defs>
  <path d="M97.27,165.1v274.5c.2,0-60.8.6-60.8.6,0,0-4.5-10.6,14.5-11,0,0,9.6,2.9,9.8-13.7l.6-224.2s-1.2-11.5-11.5-14.3c0,0-21.9-.8-22.7-5.1,0,0-2-2.5-1.8-6.8h72-.2.1Z"/>
  <path d="M132.27,169.2v20.7s36.4,21.3,35,67.9c0,0,2.5,49.7-35,70.2v63.6l39.3,69.5s9,19.4,29,27.6c0,0,37,10.2,40.9-11.3,0,0,2-16.4-13.5-16.4,0,0-9.8,0-13.1,10,0,0-10.4-12.9-14.5-20.7l-26-51.3s-13.7-25.6-27-38c-1.6-1.6-3.7-3.1-5.5-4.3-3.3-2-9-5.5-9.2-5.3v-.8s35.2-4.1,56.9-39.3c0,0,20.7-34.2,10.8-70.6,0,0-7-38.3-35.6-56,0,0-16.2-12.7-32.3-15.3h0l-.2-.2h0Z"/>
  <circle class="cls-7" cx="226.97" cy="433.4" r="12.7"/>
  <g class="cls-3">
    <g class="cls-3">
      <g class="cls-3">
        <text class="cls-5" transform="translate(25.27 150.3) rotate(-13.4)"><tspan x="0" y="0">Y</tspan></text>
      </g>
    </g>
  </g>
  <g class="cls-3">
    <g class="cls-3">
      <g class="cls-3">
        <text class="cls-4" transform="translate(73.37 139.9) rotate(3.5)"><tspan x="0" y="0">A</tspan></text>
      </g>
    </g>
  </g>
  <g class="cls-3">
    <g class="cls-3">
      <g class="cls-3">
        <text class="cls-6" transform="translate(144.37 145.6) rotate(19.8)"><tspan x="0" y="0">N</tspan></text>
      </g>
    </g>
  </g>
  <path class="cls-7" d="M114.47,57.7s-23.9-6.1,6.3-57.7c0,0,18.2,50.9-6.3,57.7Z"/>
  <path class="cls-7" d="M112.47,56.7s-9-9.4,19.8-26.2c0,0-6.5,29.5-19.8,26.2Z"/>
  <path class="cls-7" d="M116.47,56.7s-12.5,4.3-15.8-28.8c0,0,24.1,18.2,15.8,28.8Z"/>
  <path class="cls-7" d="M213.47,85.1s-14.1-9.2,16.6-36.2c0,0,.8,37-16.6,36.2Z"/>
  <path class="cls-7" d="M217.97,80.8s-5.3-7.4,16-15.8c0,0-7.4,19.4-16,15.8h0Z"/>
  <path class="cls-7" d="M212.27,79s-8.8-1.8,1.2-22.5c0,0,7.4,19.2-1.2,22.5Z"/>
  <path class="cls-7" d="M22.67,70.2s-15.8,5.7-19-35c0,0,30.1,21.7,19,35Z"/>
  <path class="cls-7" d="M19.97,66.9s-8.6-2.5,2.5-22.3c0,0,6.5,19.6-2.5,22.3Z"/>
  <path class="cls-7" d="M18.77,65.5s-6.5,6.1-17.8-13.7c0,0,20,4.7,17.8,13.7Z"/>
  <path class="cls-1" d="M18.97,74s93.5-37.2,196.8,22.9"/>
  <path class="cls-2" d="M55.97,144.4s47-18.2,124.6,16.6"/>
</svg>